# xmcd CD database file
#
# Track frame offsets:
#	150
#	20152
#	36142
#	59542
#	73717
#	92822
#	112135
#	129737
#	144417
#	162582
#	178610
#	199837
#	219365
#
# Disc length: 3263 seconds
#
# Revision: 3
# Processed by: cddbd v1.4PL0 Copyright (c) Steve Scherf et al.
# Submitted via: CDex 1.50Beta7
#
DISCID=ca0cbd0d
DTITLE=Mike Morgan and Jim Suhler - Let The Dogs Run
DYEAR=1994
DGENRE=Blues
TTITLE0=Roll Me
TTITLE1=Sawed Off Shotgun
TTITLE2=Where'd You Get Your Sugar From¿
TTITLE3=Bloodstains on the Wall
TTITLE4=You're Fine
TTITLE5=Roll Your Moneymaker
TTITLE6=I Just Want to Get to Know You
TTITLE7=All My Whole Life
TTITLE8=Evil
TTITLE9=Twelve Year Old Boy
TTITLE10=You Hurt Me
TTITLE11=Objection Over-ruled
TTITLE12=Ruby Lee
EXTD=YEAR: 1994
EXTT0=
EXTT1=
EXTT2=
EXTT3=
EXTT4=
EXTT5=
EXTT6=
EXTT7=
EXTT8=
EXTT9=
EXTT10=
EXTT11=
EXTT12=
PLAYORDER=
